[img]http://i.imgrz.com/fZEM1.jpg[/img]
[code]

Premium.Rush.2012.720p.TS.XVID-26K
 
http://www.imdb.com/title/tt1547234/

Plot:
In Manhattan, a bike messenger picks up an envelope that attracts the interest of a dirty cop, who pursues the cyclist throughout the city.

Sources - audio-tooth-fairy....Thanks :P
          VIDEO-matine.....Thanks :P
Video
ID                                       : 0
Format                                   : MPEG-4 Visual
Format profile                           : Advanced Simple@L5
Format settings, BVOP                    : 2
Format settings, QPel                    : No
Format settings, GMC                     : No warppoints
Format settings, Matrix                  : Default (H.263)
Muxing mode                              : Packed bitstream
Codec ID                                 : XVID
Codec ID/Hint                            : XviD
Duration                                 : 1h 23mn
Bit rate                                 : 2 995 Kbps
Width                                    : 1 280 pixels
Height                                   : 672 pixels
Display aspect ratio                     : 1.905
Frame rate                               : 25.000 fps
Color space                              : YUV
Chroma subsampling                       : 4:2:0
Bit depth                                : 8 bits
Scan type                                : Progressive
Compression mode                         : Lossy
Bits/(Pixel*Frame)                       : 0.139
Stream size                              : 1.74 GiB (88%)
Writing library                          : XviD 64

Audio
ID                                       : 1
Format                                   : AC-3
Format/Info                              : Audio Coding 3
Mode extension                           : CM (complete main)
Format settings, Endianness              : Big
Codec ID                                 : 2000
Duration                                 : 1h 23mn
Bit rate mode                            : Constant
Bit rate                                 : 384 Kbps
Channel(s)                               : 2 channels
Channel positions                        : Front: L R
Sampling rate                            : 44.1 KHz
Bit depth                                : 16 bits
Compression mode                         : Lossy
Stream size                              : 228 MiB (11%)
Alignment                                : Aligned on interleaves
Interleave, duration                     : 35 ms (0.87 video frame)

Notes -
used a few color denoisers on the video.. fixed the ar.. turned out nice ;) enjoy

Extra notes:
dheer1231 youtuber... you suck.. for been racist grow a pair and research before you speak noob...
[/code]

Screens:
[IMG]http://i.imgur.com/YdnNI.jpg[/IMG]
[IMG]http://i.imgur.com/u8ZBC.jpg[/IMG]
[IMG]http://i.imgur.com/zjjTH.jpg[/IMG]
[IMG]http://i.imgur.com/P0gyg.png[/IMG]
[IMG]http://i.imgur.com/3LBev.jpg[/IMG]
[IMG]http://i.imgur.com/14glP.jpg[/IMG]
[IMG]http://i.imgur.com/14glP.jpg[/IMG]
[IMG]http://img821.imageshack.us/img821/3/vlcsnap2012091211h07m40.png[/IMG]
[IMG]http://img811.imageshack.us/img811/508/vlcsnap2012091211h08m10.png[/IMG]
[IMG]http://img28.imageshack.us/img28/5958/vlcsnap2012091211h08m29.png[/IMG]
[IMG]http://img217.imageshack.us/img217/630/vlcsnap2012091211h08m42.png[/IMG]
[IMG]http://img152.imageshack.us/img152/1763/vlcsnap2012091211h08m54.png[/IMG]

Greetz:
XtremeEncode|FYA|ILLUMANTI|CM8|RX|VISION|HDSCENE|xTriLL|DTRG|CRYS|REMIXHD|BIDA|RX|REFILL|INSPiRAL|AXED|HOPE|Anonymous|GooN|NOIR|Blackjesus|Gabroo Punjab Deh|UNiQUE|DQ1|RESiSTANCE|HS|LEGION

To all the people who have helped me  you know who you are

Anything to offer email us @: 26k@hushmail.me